# xmcd CD database file
# Copyright (C) 1993-1998 Ti Kan
# 
# Track frame offsets:
#     150
#     19525
#     43487
#     67245
#     81017
#     101667
#     117077
#     141582
#     153885
#     177460
#     194192
# 
# Disc length: 3081 seconds
# 
# Revision: 1
# Processed by: cddbd v1.4b41PL1 Copyright (c) Steve Scherf et al.
# Submitted via: DiscPlay 4.0.4
# 
DISCID=a30c070b
DTITLE=fingers - A place to carry me to...
DYEAR=1900
DGENRE=
TTITLE0=Not My Girlfriend
TTITLE1=Muscatine
TTITLE2=Sun In Your Eyes
TTITLE3=Back Before Dinner
TTITLE4=Waiting For Marie
TTITLE5=Like She Do
TTITLE6=Aliento
TTITLE7=Lately
TTITLE8=Black Heart Jack
TTITLE9=Sayin' No
TTITLE10=Man In The Kitchen
EXTD=
EXTT0=
EXTT1=
EXTT2=
EXTT3=
EXTT4=
EXTT5=
EXTT6=
EXTT7=
EXTT8=
EXTT9=
EXTT10=
PLAYORDER=
